<?xml version="1.0" standalone="no"?><!DOCTYPE svg PUBLIC "-//W3C//DTD SVG 1.1//EN" "http://www.w3.org/Graphics/SVG/1.1/DTD/svg11.dtd"><svg t="1679670746744" class="icon" viewBox="0 0 1024 1024" version="1.1" xmlns="http://www.w3.org/2000/svg" p-id="2786" xmlns:xlink="http://www.w3.org/1999/xlink" width="200" height="200"><path d="M837.470354 1024H186.501825c-45.735872 0-98.259401-10.019873-98.259401-87.593084V406.161697a32.322171 32.322171 0 0 1 9.535041-22.948742L463.987665 19.75014a68.199781 68.199781 0 0 1 95.996849 0l366.2102 363.462815a32.322171 32.322171 0 0 1 9.53504 22.948742v530.245219c0 56.725411-15.676253 87.593084-98.2594 87.593084zM152.886767 420.221841v517.15474c0 21.171022 0 22.948742 33.615058 22.948742h650.968529a114.420486 114.420486 0 0 0 32.322171-3.070607 183.589933 183.589933 0 0 0 0-19.878135V420.221841L514.410252 65.647623a3.555439 3.555439 0 0 0-4.848326 0z" fill="#3D3D3D" p-id="2787"></path><path d="M538.813491 239.217682a23.756796 23.756796 0 0 0-32.322171 0l-239.184067 236.759905v345.362399c0 28.766732 12.120814 36.039221 42.988488 36.039221H734.685849c42.988488 0 42.988488-11.635982 42.988488-36.039221V475.977587z" fill="#F683A2" p-id="2788"></path><path d="M811.774227 941.255242h-129.288684a32.322171 32.322171 0 0 1 0-64.644343h129.288684a32.322171 32.322171 0 0 1 0 64.644343z" fill="#3D3D3D" p-id="2789"></path></svg>